<?xml version="1.0" standalone="no"?>
<!DOCTYPE svg PUBLIC "-//W3C//DTD SVG 20010904//EN"
 "http://www.w3.org/TR/2001/REC-SVG-20010904/DTD/svg10.dtd">
<svg version="1.0" xmlns="http://www.w3.org/2000/svg"
 width="260.000000pt" height="260.000000pt" viewBox="0 0 260.000000 260.000000"
 preserveAspectRatio="xMidYMid meet">
<metadata>
Created by potrace 1.11, written by Peter Selinger 2001-2013
</metadata>
<g transform="translate(0.000000,260.000000) scale(0.100000,-0.100000)"
fill="#000000" stroke="none">
<path d="M1085 2050 c-137 -36 -224 -88 -318 -189 -155 -168 -225 -396 -198
-647 41 -390 297 -655 646 -671 163 -8 302 38 429 142 l56 45 0 -75 0 -75 170
0 170 0 0 725 0 725 -170 0 -170 0 0 -80 0 -81 -67 54 c-166 133 -358 178
-548 127z m377 -310 c117 -44 219 -174 248 -317 15 -72 8 -229 -14 -299 -40
-128 -149 -236 -271 -269 -190 -52 -375 27 -461 197 -73 143 -74 361 -2 502
45 88 152 176 247 203 63 18 183 10 253 -17z"/>
</g>
</svg>
